<?xml version="1.0" encoding="UTF-8"?>
<svg width="25px" height="26px" viewBox="0 0 25 26" version="1.1" xmlns="http://www.w3.org/2000/svg" xmlns:xlink="http://www.w3.org/1999/xlink">
    <title>Call-Active</title>
    <g id="UI-Design" stroke="none" stroke-width="1" fill="none" fill-rule="evenodd" stroke-linecap="round">
        <g id="14_Call-Meeting" transform="translate(-100.000000, -736.000000)" stroke="#C1C8D9" stroke-width="1.2">
            <g id="Footer-Tabs" transform="translate(0.000000, 729.000000)">
                <g id="1" transform="translate(75.000000, 0.000000)">
                    <g id="Call-Active" transform="translate(26.024844, 7.996782)">
                        <path d="M8.41902439,18.5869952 C7.19295598,17.5624399 6.05090086,16.4202568 4.99976332,15.1655091 C2.95894304,12.7057521 1.59440631,10.4315242 0.690699966,7.98972164 C0.134112616,6.4995039 -0.0693709315,5.33845072 0.0204012218,4.24323045 C0.080249324,3.54300765 0.349565784,2.96248106 0.846305032,2.46574181 L2.88712532,0.424921526 C3.18038102,0.149620255 3.49159115,0 3.79681647,0 C4.17385951,0 4.47908484,0.227422788 4.67059876,0.418936715 C5.05362662,0.778025328 5.40074561,1.13112913 5.76581903,1.50817218 C5.95134815,1.6996861 6.14286208,1.89120003 6.334376,2.08869877 L7.96822919,3.72255196 C8.60261908,4.35694184 8.60261908,4.94345324 7.96822919,5.57784312 C7.7946697,5.75140262 7.62709501,5.92496212 7.45353551,6.0925368 C6.95081146,6.60723048 6.47202664,7.0860153 5.95134815,7.5528305 C5.40673042,8.09744823 5.50248738,8.60017228 5.61021397,8.94130647 C6.05308992,10.0245571 6.65157094,10.9940964 7.5612621,12.1491647 C9.21905453,14.189985 10.9606343,15.7759597 12.8817584,16.9908762 C13.1271356,17.1464813 13.3784976,17.2721623 13.61789,17.3918585 C13.8333432,17.4995851 14.0368268,17.6013269 14.2103863,17.7090534 C14.2343255,17.7210231 14.2582647,17.7389775 14.282204,17.7509471 C14.4856875,17.8526889 14.6772014,17.9005674 14.8747002,17.9005674 C15.3714394,17.9005674 15.6826496,17.5893572 15.7843913,17.4876155 L17.8311964,15.4408104 C18.03468,15.2373268 18.3578597,14.9919496 18.7349028,14.9919496 C19.105961,14.9919496 19.4111863,15.2253572 19.5967154,15.4288407 C19.6007053,15.4328306 20.7039053,16.5360306 22.9063155,18.7384408 C23.4356121,19.2168665 23.4655362,20.05474 22.9123003,20.6116864 C22.6788927,20.8630484 22.4395003,21.0904712 22.1821535,21.3418332 C21.7931408,21.7128915 21.3981433,22.1019041 21.0270851,22.5387953 C20.4226193,23.1851548 19.7104268,23.4903801 18.7767964,23.4903801 C18.6870243,23.4903801 18.5912673,23.4903801 18.5014952,23.4843953 C16.7240065,23.3706839 15.0721989,22.6764459 13.8333432,22.0839497 C12.9975534,21.6793448 12.1869033,21.2328403 11.4027413,20.7454252 C10.2309756,19.9895087 9.23640334,19.2700321 8.41902439,18.5869952 Z" id="Path"></path>
                        <path d="M14.1623482,5.38252884 C15.0813566,5.58437914 15.8663429,5.97366185 16.5173072,6.55037697 C17.1682715,7.1270921 17.5655511,7.9200754 17.7091462,8.92932687" id="Path-5"></path>
                        <path d="M14.4751561,10.5032185 C14.4751561,9.67479137 13.8035832,9.0032185 12.9751561,9.0032185" id="Path" stroke-linejoin="round"></path>
                        <path d="M12.3889492,0.0623317984 C15.411886,0.601306009 17.8594343,1.87050334 19.731594,3.8699238 C21.6037537,5.86934426 22.7030035,8.14694495 23.0293432,10.7027259" id="Path-6"></path>
                    </g>
                </g>
            </g>
        </g>
    </g>
</svg>