<?xml version="1.0" encoding="UTF-8"?>
<svg width="26px" height="26px" viewBox="0 0 26 26" version="1.1" xmlns="http://www.w3.org/2000/svg" xmlns:xlink="http://www.w3.org/1999/xlink">
    <title>Chat-Inactive</title>
    <g id="UI-Design" stroke="none" stroke-width="1" fill="none" fill-rule="evenodd">
        <g id="14_Call-Meeting" transform="translate(-175.000000, -736.000000)" stroke="#C1C8D9" stroke-width="1.2">
            <g id="Footer-Tabs" transform="translate(0.000000, 729.000000)">
                <g id="1" transform="translate(150.000000, 0.000000)">
                    <g id="Chat-Inactive" transform="translate(25.999812, 8.000000)">
                        <path d="M6.71359029,18.9507446 C7.60064642,19.3539519 8.62210499,19.5555556 9.77796601,19.5555556 C15.1780836,19.5555556 19.5557401,15.1778953 19.5557401,9.77777778 C19.5557401,4.37766022 15.1780836,0 9.77796601,0 C4.37784845,0 0,4.37766022 0,9.77777778 C0,12.0245238 0.367845276,13.7438608 1.64176559,15.3949872 C1.29231923,17.088458 0.745064038,18.2737104 0,18.9507446 L4.61769466,18.0176668 L6.71359029,18.9507446 Z" id="Oval" stroke-linecap="round" stroke-linejoin="round"></path>
                        <path d="M13.1417365,8.87182619 C10.5508969,10.1958088 8.77708328,12.8907632 8.77708328,16 C8.77708328,17.8382468 8.75468722,18.6736014 9.79697582,20.024523 C9.51106786,21.41009 9.17114209,22.5703006 8.77708328,23.5051546 L12.5551614,22.7417274 L14.269969,23.5051546 C14.9957353,23.8350515 15.8314662,24 16.7771599,24 C19.9626219,24 22.7132325,22.1381773 24.0001882,19.4433492" id="Path" stroke-linecap="round" stroke-linejoin="round" transform="translate(16.388636, 16.435913) scale(-1, 1) translate(-16.388636, -16.435913) "></path>
                        <path d="M13.4098618,18.7570908 C14.138519,19.5227556 15.1674666,20 16.3078805,20 C18.5170195,20 20.3078805,18.209139 20.3078805,16 C20.3078805,14.7878739 19.7687283,13.7016735 18.9171558,12.9681309" id="Path"></path>
                        <line x1="13.812154" y1="7.55555556" x2="5.03609261" y2="7.55555556" id="Path-2" stroke-linecap="round"></line>
                        <line x1="13.812154" y1="11.0769231" x2="7.80532338" y2="11.0769231" id="Path-2-Copy" stroke-linecap="round"></line>
                    </g>
                </g>
            </g>
        </g>
    </g>
</svg>