<?xml version="1.0" encoding="UTF-8"?>
<svg width="32px" height="32px" viewBox="0 0 32 32" version="1.1" xmlns="http://www.w3.org/2000/svg" xmlns:xlink="http://www.w3.org/1999/xlink">
    <title>ScanQR</title>
    <g id="UI-Design" stroke="none" stroke-width="1" fill="none" fill-rule="evenodd">
        <g id="14_Call-Meeting" transform="translate(-314.000000, -249.000000)">
            <g id="List" transform="translate(0.000000, 227.000000)">
                <g id="ScanQR" transform="translate(315.000000, 23.000000)">
                    <path d="M22.1067132,0 L28,0 C29.1045695,0 30,0.8954305 30,2 L30,8.04130212 L30,8.04130212 M30,21.9475863 L30,28 C30,29.1045695 29.1045695,30 28,30 L22.1307461,30 L22.1307461,30 M8.05068537,30 L2,30 C0.8954305,30 0,29.1045695 0,28 L0,22.0524993 L0,22.0524993 M0,8.08474626 L0,2 C0,0.8954305 0.8954305,0 2,0 L7.99245174,0 L7.99245174,0" id="Shape" stroke="#5061AC" stroke-linecap="round"></path>
                    <path d="M13.5585938,6 L6.52734375,6 C6.23610937,6 6,6.23610937 6,6.52734375 L6,13.5585938 C6,13.8498281 6.23610937,14.0859375 6.52734375,14.0859375 L13.5585938,14.0859375 C13.8498281,14.0859375 14.0859375,13.8498281 14.0859375,13.5585938 L14.0859375,6.52734375 C14.0859375,6.23610937 13.8498281,6 13.5585938,6 Z M13.03125,13.03125 L7.0546875,13.03125 L7.0546875,7.0546875 L13.03125,7.0546875 L13.03125,13.03125 Z" id="Shape" fill="#5061AC" fill-rule="nonzero"></path>
                    <path d="M11.0976562,8.4609375 L8.98828125,8.4609375 C8.69704687,8.4609375 8.4609375,8.69704687 8.4609375,8.98828125 L8.4609375,11.0976562 C8.4609375,11.3888906 8.69704687,11.625 8.98828125,11.625 L11.0976562,11.625 C11.3888906,11.625 11.625,11.3888906 11.625,11.0976562 L11.625,8.98828125 C11.625,8.69704687 11.3888906,8.4609375 11.0976562,8.4609375 Z M10.5703125,10.5703125 L9.515625,10.5703125 L9.515625,9.515625 L10.5703125,9.515625 L10.5703125,10.5703125 Z" id="Shape" fill="#5061AC" fill-rule="nonzero"></path>
                    <path d="M23.4726562,6 L16.4414062,6 C16.1501719,6 15.9140625,6.23610937 15.9140625,6.52734375 L15.9140625,13.5585938 C15.9140625,13.8498281 16.1501719,14.0859375 16.4414062,14.0859375 L23.4726562,14.0859375 C23.7638906,14.0859375 24,13.8498281 24,13.5585938 L24,6.52734375 C24,6.23610937 23.7638906,6 23.4726562,6 Z M22.9453125,13.03125 L16.96875,13.03125 L16.96875,7.0546875 L22.9453125,7.0546875 L22.9453125,13.03125 Z" id="Shape" fill="#5061AC" fill-rule="nonzero"></path>
                    <path d="M21.0117188,8.4609375 L18.9023438,8.4609375 C18.6111094,8.4609375 18.375,8.69704687 18.375,8.98828125 L18.375,11.0976562 C18.375,11.3888906 18.6111094,11.625 18.9023438,11.625 L21.0117188,11.625 C21.3029531,11.625 21.5390625,11.3888906 21.5390625,11.0976562 L21.5390625,8.98828125 C21.5390625,8.69704687 21.3029531,8.4609375 21.0117188,8.4609375 Z M20.484375,10.5703125 L19.4296875,10.5703125 L19.4296875,9.515625 L20.484375,9.515625 L20.484375,10.5703125 Z" id="Shape" fill="#5061AC" fill-rule="nonzero"></path>
                    <path d="M13.5585938,15.9140625 L6.52734375,15.9140625 C6.23610937,15.9140625 6,16.1501719 6,16.4414062 L6,23.4726562 C6,23.7638906 6.23610937,24 6.52734375,24 L13.5585938,24 C13.8498281,24 14.0859375,23.7638906 14.0859375,23.4726562 L14.0859375,16.4414062 C14.0859375,16.1501719 13.8498281,15.9140625 13.5585938,15.9140625 Z M13.03125,22.9453125 L7.0546875,22.9453125 L7.0546875,16.96875 L13.03125,16.96875 L13.03125,22.9453125 Z" id="Shape" fill="#5061AC" fill-rule="nonzero"></path>
                    <path d="M11.0976562,18.375 L8.98828125,18.375 C8.69704687,18.375 8.4609375,18.6111094 8.4609375,18.9023438 L8.4609375,21.0117188 C8.4609375,21.3029531 8.69704687,21.5390625 8.98828125,21.5390625 L11.0976562,21.5390625 C11.3888906,21.5390625 11.625,21.3029531 11.625,21.0117188 L11.625,18.9023438 C11.625,18.6111094 11.3888906,18.375 11.0976562,18.375 Z M10.5703125,20.484375 L9.515625,20.484375 L9.515625,19.4296875 L10.5703125,19.4296875 L10.5703125,20.484375 Z" id="Shape" fill="#5061AC" fill-rule="nonzero"></path>
                    <path d="M23.4726562,20.858332 L20.484375,20.858332 L20.484375,18.9023438 C20.484375,18.6111094 20.2482656,18.375 19.9570312,18.375 C19.6657969,18.375 19.4296875,18.6111094 19.4296875,18.9023438 L19.4296875,21.3856758 C19.4296875,21.6769102 19.6657969,21.9130195 19.9570312,21.9130195 L22.9453125,21.9130195 L22.9453125,22.9453125 L19.9570312,22.9453125 C19.6657969,22.9453125 19.4296875,23.1814219 19.4296875,23.4726562 C19.4296875,23.7638906 19.6657969,24 19.9570312,24 L23.4726562,24 C23.7638906,24 24,23.7638906 24,23.4726562 L24,21.3856758 C24,21.0944414 23.7638906,20.858332 23.4726562,20.858332 Z" id="Shape" fill="#5061AC" fill-rule="nonzero"></path>
                    <path d="M23.4726562,15.9140625 C23.1814219,15.9140625 22.9453125,16.1501719 22.9453125,16.4414062 L22.9453125,18.9023438 C22.9453125,19.1935781 23.1814219,19.4296875 23.4726562,19.4296875 C23.7638906,19.4296875 24,19.1935781 24,18.9023438 L24,16.4414062 C24,16.1501719 23.7638906,15.9140625 23.4726562,15.9140625 Z" id="Shape" fill="#5061AC" fill-rule="nonzero"></path>
                    <path d="M18.9023438,15.9140625 L16.4414062,15.9140625 C16.1501719,15.9140625 15.9140625,16.1501719 15.9140625,16.4414062 L15.9140625,18.9023438 C15.9140625,19.1935781 16.1501719,19.4296875 16.4414062,19.4296875 C16.7326406,19.4296875 16.96875,19.1935781 16.96875,18.9023438 L16.96875,16.96875 L18.9023438,16.96875 C19.1935781,16.96875 19.4296875,16.7326406 19.4296875,16.4414062 C19.4296875,16.1501719 19.1935781,15.9140625 18.9023438,15.9140625 Z" id="Shape" fill="#5061AC" fill-rule="nonzero"></path>
                    <path d="M16.4414062,20.858332 C16.1501719,20.858332 15.9140625,21.0944414 15.9140625,21.3856758 L15.9140625,23.4726563 C15.9140625,23.7638906 16.1501719,24 16.4414062,24 C16.7326406,24 16.96875,23.7638906 16.96875,23.4726563 L16.96875,21.3856758 C16.96875,21.0944414 16.7326406,20.858332 16.4414062,20.858332 Z" id="Shape" fill="#5061AC" fill-rule="nonzero"></path>
                </g>
            </g>
        </g>
    </g>
</svg>