<?xml version="1.0" encoding="UTF-8"?>
<svg width="19px" height="19px" viewBox="0 0 19 19" version="1.1" xmlns="http://www.w3.org/2000/svg" xmlns:xlink="http://www.w3.org/1999/xlink">
    <title>settings_icon</title>
    <g id="UI-Design" stroke="none" stroke-width="1" fill="none" fill-rule="evenodd" stroke-linecap="round" stroke-linejoin="round">
        <g id="14_Call-Meeting" transform="translate(-340.000000, -57.000000)" stroke="#5061AC" stroke-width="1.2">
            <g id="settings_icon" transform="translate(341.000000, 58.000000)">
                <circle id="Oval" cx="8.68421053" cy="8.68421053" r="2.36842105"></circle>
                <path d="M14.5263158,11.0526316 C14.3113054,11.5398079 14.4144743,12.1087999 14.7868421,12.4894737 L14.8342105,12.5368421 C15.1307006,12.8330025 15.2972947,13.2348801 15.2972947,13.6539474 C15.2972947,14.0730146 15.1307006,14.4748922 14.8342105,14.7710526 C14.5380501,15.0675427 14.1361725,15.2341368 13.7171053,15.2341368 C13.298038,15.2341368 12.8961604,15.0675427 12.6,14.7710526 L12.5526316,14.7236842 C12.1719578,14.3513164 11.6029658,14.2481475 11.1157895,14.4631579 C10.6385758,14.6676855 10.3283865,15.1360714 10.3263158,15.6552632 L10.3263158,15.7894737 C10.3263158,16.6615022 9.61939697,17.3684211 8.74736842,17.3684211 C7.87533987,17.3684211 7.16842105,16.6615022 7.16842105,15.7894737 L7.16842105,15.7184211 C7.15591311,15.1836875 6.8177935,14.7109462 6.31578947,14.5263158 C5.8286131,14.3113054 5.25962111,14.4144743 4.87894737,14.7868421 L4.83157895,14.8342105 C4.53541854,15.1307006 4.13354092,15.2972947 3.71447368,15.2972947 C3.29540645,15.2972947 2.89352883,15.1307006 2.59736842,14.8342105 C2.30087835,14.5380501 2.13428423,14.1361725 2.13428423,13.7171053 C2.13428423,13.298038 2.30087835,12.8961604 2.59736842,12.6 L2.64473684,12.5526316 C3.01710464,12.1719578 3.12027352,11.6029658 2.90526316,11.1157895 C2.70073557,10.6385758 2.23234967,10.3283865 1.71315789,10.3263158 L1.57894737,10.3263158 C0.706918816,10.3263158 0,9.61939697 0,8.74736842 C0,7.87533987 0.706918816,7.16842105 1.57894737,7.16842105 L1.65,7.16842105 C2.18473356,7.15591311 2.65747486,6.8177935 2.84210526,6.31578947 C3.05711562,5.8286131 2.95394675,5.25962111 2.58157895,4.87894737 L2.53421053,4.83157895 C2.23772046,4.53541854 2.07112633,4.13354092 2.07112633,3.71447368 C2.07112633,3.29540645 2.23772046,2.89352883 2.53421053,2.59736842 C2.83037093,2.30087835 3.23224856,2.13428423 3.65131579,2.13428423 C4.07038302,2.13428423 4.47226065,2.30087835 4.76842105,2.59736842 L4.81578947,2.64473684 C5.19646321,3.01710464 5.76545521,3.12027352 6.25263158,2.90526316 L6.31578947,2.90526316 C6.79300311,2.70073557 7.10319244,2.23234967 7.10526316,1.71315789 L7.10526316,1.57894737 C7.10526316,0.706918816 7.81218197,0 8.68421053,0 C9.55623908,0 10.2631579,0.706918816 10.2631579,1.57894737 L10.2631579,1.65 C10.2652286,2.16919178 10.5754179,2.63757767 11.0526316,2.84210526 C11.5398079,3.05711562 12.1087999,2.95394675 12.4894737,2.58157895 L12.5368421,2.53421053 C12.8330025,2.23772046 13.2348801,2.07112633 13.6539474,2.07112633 C14.0730146,2.07112633 14.4748922,2.23772046 14.7710526,2.53421053 C15.0675427,2.83037093 15.2341368,3.23224856 15.2341368,3.65131579 C15.2341368,4.07038302 15.0675427,4.47226065 14.7710526,4.76842105 L14.7236842,4.81578947 C14.3513164,5.19646321 14.2481475,5.76545521 14.4631579,6.25263158 L14.4631579,6.31578947 C14.6676855,6.79300311 15.1360714,7.10319244 15.6552632,7.10526316 L15.7894737,7.10526316 C16.6615022,7.10526316 17.3684211,7.81218197 17.3684211,8.68421053 C17.3684211,9.55623908 16.6615022,10.2631579 15.7894737,10.2631579 L15.7184211,10.2631579 C15.1992293,10.2652286 14.7308434,10.5754179 14.5263158,11.0526316 Z" id="Path"></path>
            </g>
        </g>
    </g>
</svg>